<svg xmlns="http://www.w3.org/2000/svg" style="display:none;">

<symbol id="icon-heart" viewBox="0 0 24 24">
  <path d="M20.84 4.61a5.5 5.5 0 0 0-7.78 0L12 5.67l-1.06-1.06a5.5 5.5 0 0 0-7.78 7.78l1.06 1.06L12 21.23l7.78-7.78 1.06-1.06a5.5 5.5 0 0 0 0-7.78z" fill="none" stroke="currentColor" stroke-width="2" stroke-linecap="round" stroke-linejoin="round"/>
</symbol>

<symbol id="icon-heart-filled" viewBox="0 0 24 24">
  <path d="M20.84 4.61a5.5 5.5 0 0 0-7.78 0L12 5.67l-1.06-1.06a5.5 5.5 0 0 0-7.78 7.78l1.06 1.06L12 21.23l7.78-7.78 1.06-1.06a5.5 5.5 0 0 0 0-7.78z" fill="currentColor" stroke="currentColor" stroke-width="2"/>
</symbol>

<symbol id="icon-bookmark" viewBox="0 0 24 24">
  <path d="M19 21l-7-5-7 5V5a2 2 0 0 1 2-2h10a2 2 0 0 1 2 2z" fill="none" stroke="currentColor" stroke-width="2" stroke-linecap="round" stroke-linejoin="round"/>
</symbol>

<symbol id="icon-bookmark-filled" viewBox="0 0 24 24">
  <path d="M19 21l-7-5-7 5V5a2 2 0 0 1 2-2h10a2 2 0 0 1 2 2z" fill="currentColor" stroke="currentColor" stroke-width="2"/>
</symbol>

<symbol id="icon-comment" viewBox="0 0 24 24">
  <path d="M21 15a2 2 0 0 1-2 2H7l-4 4V5a2 2 0 0 1 2-2h14a2 2 0 0 1 2 2z" fill="none" stroke="currentColor" stroke-width="2" stroke-linecap="round" stroke-linejoin="round"/>
</symbol>

<symbol id="icon-message" viewBox="0 0 24 24">
  <path d="M21 15a2 2 0 0 1-2 2H7l-4 4V5a2 2 0 0 1 2-2h14a2 2 0 0 1 2 2z" fill="none" stroke="currentColor" stroke-width="2"/>
</symbol>

<symbol id="icon-user-plus" viewBox="0 0 24 24">
  <path d="M16 21v-2a4 4 0 0 0-4-4H5a4 4 0 0 0-4 4v2" fill="none" stroke="currentColor" stroke-width="2" stroke-linecap="round" stroke-linejoin="round"/>
  <circle cx="8.5" cy="7" r="4" fill="none" stroke="currentColor" stroke-width="2"/>
  <line x1="20" y1="8" x2="20" y2="14" stroke="currentColor" stroke-width="2" stroke-linecap="round"/>
  <line x1="23" y1="11" x2="17" y2="11" stroke="currentColor" stroke-width="2" stroke-linecap="round"/>
</symbol>

<symbol id="icon-user-minus" viewBox="0 0 24 24">
  <path d="M16 21v-2a4 4 0 0 0-4-4H5a4 4 0 0 0-4 4v2" fill="none" stroke="currentColor" stroke-width="2"/>
  <circle cx="8.5" cy="7" r="4" fill="none" stroke="currentColor" stroke-width="2"/>
  <line x1="23" y1="11" x2="17" y2="11" stroke="currentColor" stroke-width="2"/>
</symbol>

<symbol id="icon-user-check" viewBox="0 0 24 24">
  <path d="M16 21v-2a4 4 0 0 0-4-4H5a4 4 0 0 0-4 4v2" fill="none" stroke="currentColor" stroke-width="2"/>
  <circle cx="8.5" cy="7" r="4" fill="none" stroke="currentColor" stroke-width="2"/>
  <polyline points="16 11 18 13 22 9" fill="none" stroke="currentColor" stroke-width="2"/>
</symbol>

<symbol id="icon-search" viewBox="0 0 24 24">
  <circle cx="11" cy="11" r="8" fill="none" stroke="currentColor" stroke-width="2"/>
  <line x1="21" y1="21" x2="16.65" y2="16.65" stroke="currentColor" stroke-width="2" stroke-linecap="round"/>
</symbol>

<symbol id="icon-edit" viewBox="0 0 24 24">
  <path d="M11 4H4a2 2 0 0 0-2 2v14a2 2 0 0 0 2 2h14a2 2 0 0 0 2-2v-7" fill="none" stroke="currentColor" stroke-width="2" stroke-linecap="round" stroke-linejoin="round"/>
  <path d="M18.5 2.5a2.121 2.121 0 0 1 3 3L12 15l-4 1 1-4 9.5-9.5z" fill="none" stroke="currentColor" stroke-width="2"/>
</symbol>

<symbol id="icon-trash" viewBox="0 0 24 24">
  <polyline points="3 6 5 6 21 6" fill="none" stroke="currentColor" stroke-width="2" stroke-linecap="round" stroke-linejoin="round"/>
  <path d="M19 6v14a2 2 0 0 1-2 2H7a2 2 0 0 1-2-2V6m3 0V4a2 2 0 0 1 2-2h4a2 2 0 0 1 2 2v2" fill="none" stroke="currentColor" stroke-width="2" stroke-linecap="round" stroke-linejoin="round"/>
</symbol>

<symbol id="icon-plus" viewBox="0 0 24 24">
  <line x1="12" y1="5" x2="12" y2="19" stroke="currentColor" stroke-width="2" stroke-linecap="round"/>
  <line x1="5" y1="12" x2="19" y2="12" stroke="currentColor" stroke-width="2" stroke-linecap="round"/>
</symbol>

<symbol id="icon-x" viewBox="0 0 24 24">
  <line x1="18" y1="6" x2="6" y2="18" stroke="currentColor" stroke-width="2" stroke-linecap="round"/>
  <line x1="6" y1="6" x2="18" y2="18" stroke="currentColor" stroke-width="2" stroke-linecap="round"/>
</symbol>

<symbol id="icon-check" viewBox="0 0 24 24">
  <polyline points="20 6 9 17 4 12" fill="none" stroke="currentColor" stroke-width="2" stroke-linecap="round" stroke-linejoin="round"/>
</symbol>

<symbol id="icon-star" viewBox="0 0 24 24">
  <polygon points="12 2 15.09 8.26 22 9.27 17 14.14 18.18 21.02 12 17.77 5.82 21.02 7 14.14 2 9.27 8.91 8.26 12 2" fill="none" stroke="currentColor" stroke-width="2" stroke-linecap="round" stroke-linejoin="round"/>
</symbol>

<symbol id="icon-star-filled" viewBox="0 0 24 24">
  <polygon points="12 2 15.09 8.26 22 9.27 17 14.14 18.18 21.02 12 17.77 5.82 21.02 7 14.14 2 9.27 8.91 8.26 12 2" fill="#fbbf24" stroke="#fbbf24" stroke-width="2"/>
</symbol>

<symbol id="icon-clock" viewBox="0 0 24 24">
  <circle cx="12" cy="12" r="10" fill="none" stroke="currentColor" stroke-width="2"/>
  <polyline points="12 6 12 12 16 14" fill="none" stroke="currentColor" stroke-width="2" stroke-linecap="round" stroke-linejoin="round"/>
</symbol>

<symbol id="icon-users" viewBox="0 0 24 24">
  <path d="M17 21v-2a4 4 0 0 0-4-4H5a4 4 0 0 0-4 4v2" fill="none" stroke="currentColor" stroke-width="2"/>
  <circle cx="9" cy="7" r="4" fill="none" stroke="currentColor" stroke-width="2"/>
  <path d="M23 21v-2a4 4 0 0 0-3-3.87" fill="none" stroke="currentColor" stroke-width="2"/>
  <path d="M16 3.13a4 4 0 0 1 0 7.75" fill="none" stroke="currentColor" stroke-width="2"/>
</symbol>

<symbol id="icon-home" viewBox="0 0 24 24">
  <path d="M3 9l9-7 9 7v11a2 2 0 0 1-2 2H5a2 2 0 0 1-2-2z" fill="none" stroke="currentColor" stroke-width="2"/>
  <polyline points="9 22 9 12 15 12 15 22" fill="none" stroke="currentColor" stroke-width="2"/>
</symbol>

<symbol id="icon-settings" viewBox="0 0 24 24">
  <circle cx="12" cy="12" r="3" fill="none" stroke="currentColor" stroke-width="2"/>
  <path d="M19.4 15a1.65 1.65 0 0 0 .33 1.82l.06.06a2 2 0 0 1 0 2.83 2 2 0 0 1-2.83 0l-.06-.06a1.65 1.65 0 0 0-1.82-.33 1.65 1.65 0 0 0-1 1.51V21a2 2 0 0 1-2 2 2 2 0 0 1-2-2v-.09A1.65 1.65 0 0 0 9 19.4a1.65 1.65 0 0 0-1.82.33l-.06.06a2 2 0 0 1-2.83 0 2 2 0 0 1 0-2.83l.06-.06a1.65 1.65 0 0 0 .33-1.82 1.65 1.65 0 0 0-1.51-1H3a2 2 0 0 1-2-2 2 2 0 0 1 2-2h.09A1.65 1.65 0 0 0 4.6 9a1.65 1.65 0 0 0-.33-1.82l-.06-.06a2 2 0 0 1 0-2.83 2 2 0 0 1 2.83 0l.06.06a1.65 1.65 0 0 0 1.82.33H9a1.65 1.65 0 0 0 1-1.51V3a2 2 0 0 1 2-2 2 2 0 0 1 2 2v.09a1.65 1.65 0 0 0 1 1.51 1.65 1.65 0 0 0 1.82-.33l.06-.06a2 2 0 0 1 2.83 0 2 2 0 0 1 0 2.83l-.06.06a1.65 1.65 0 0 0-.33 1.82V9a1.65 1.65 0 0 0 1.51 1H21a2 2 0 0 1 2 2 2 2 0 0 1-2 2h-.09a1.65 1.65 0 0 0-1.51 1z" fill="none" stroke="currentColor" stroke-width="2"/>
</symbol>

<symbol id="icon-logout" viewBox="0 0 24 24">
  <path d="M9 21H5a2 2 0 0 1-2-2V5a2 2 0 0 1 2-2h4" fill="none" stroke="currentColor" stroke-width="2" stroke-linecap="round" stroke-linejoin="round"/>
  <polyline points="16 17 21 12 16 7" fill="none" stroke="currentColor" stroke-width="2" stroke-linecap="round" stroke-linejoin="round"/>
  <line x1="21" y1="12" x2="9" y2="12" stroke="currentColor" stroke-width="2" stroke-linecap="round"/>
</symbol>

<symbol id="icon-send" viewBox="0 0 24 24">
  <line x1="22" y1="2" x2="11" y2="13" stroke="currentColor" stroke-width="2" stroke-linecap="round" stroke-linejoin="round"/>
  <polygon points="22 2 15 22 11 13 2 9 22 2" fill="none" stroke="currentColor" stroke-width="2"/>
</symbol>

<symbol id="icon-share" viewBox="0 0 24 24">
  <circle cx="18" cy="5" r="3" fill="none" stroke="currentColor" stroke-width="2"/>
  <circle cx="6" cy="12" r="3" fill="none" stroke="currentColor" stroke-width="2"/>
  <circle cx="18" cy="19" r="3" fill="none" stroke="currentColor" stroke-width="2"/>
  <line x1="8.59" y1="13.51" x2="15.42" y2="17.49" stroke="currentColor" stroke-width="2"/>
  <line x1="15.41" y1="6.51" x2="8.59" y2="10.49" stroke="currentColor" stroke-width="2"/>
</symbol>

</svg>